# AST/ASF file generated using VICON BodyLanguage
# -----------------------------------------------
:version 1.10
:name VICON
:units
  mass 1.0
  length 0.45
  angle deg
:documentation
   .ast/.asf automatically generated from VICON data using
   VICON BodyBuilder and BodyLanguage model FoxedUp or BRILLIANT.MOD
:root
   order TX TY TZ RX RY RZ
   axis XYZ
   position 0 0 0  
   orientation 0 0 0 
:bonedata
  begin
     id 1 
     name lhipjoint
     direction 0.635376 -0.686425 0.353719 
     length 2.47244 
     axis 0 0 0  XYZ
  end
  begin
     id 2 
     name lfemur
     direction 0.34202 -0.939693 0  
     length 7.25268  
     axis 0 0 20  XYZ
    dof rx ry rz
    limits (-160.0 20.0)
           (-70.0 70.0)
           (-60.0 70.0)
  end
  begin
     id 3 
     name ltibia
     direction 0.34202 -0.939693 0   
     length 7.6767   
     axis 0 0 20   XYZ
    dof rx
    limits (-10.0 170.0)
  end
  begin
     id 4 
     name lfoot
     direction 0.0803374 -0.220725 0.972022   
     length 2.22945   
     axis -90 7.62852e-016 20   XYZ
    dof rx rz
    limits (-45.0 90.0)
           (-70.0 20.0)
  end
  begin
     id 5 
     name ltoes
     direction 1.53579e-011 -4.21994e-011 1   
     length 1.11848   
     axis -90 7.62852e-016 20   XYZ
    dof rx
    limits (-90.0 20.0)
  end
  begin
     id 6 
     name rhipjoint
     direction -0.664428 -0.664335 0.342336   
     length 2.55466  
     axis 0 0 0  XYZ 
  end
  begin
     id 7 
     name rfemur
     direction -0.34202 -0.939693 0   
     length 6.83172   
     axis 0 0 -20   XYZ
    dof rx ry rz
    limits (-160.0 20.0)
           (-70.0 70.0)
           (-70.0 60.0)
  end
  begin
     id 8 
     name rtibia
     direction -0.34202 -0.939693 0   
     length 7.62692   
     axis 0 0 -20   XYZ
    dof rx
    limits (-10.0 170.0)
 end
 begin
     id 9 
     name rfoot
     direction -0.0949276 -0.260811 0.960711   
     length 2.19684  
     axis -90 -7.62852e-016 -20   XYZ
    dof rx rz
    limits (-45.0 90.0)
           (-20.0 70.0)
  end
  begin
     id 10 
     name rtoes
     direction -1.53543e-011 -4.2183e-011 1   
     length 1.09848   
     axis -90 -7.62852e-016 -20   XYZ
    dof rx
    limits (-90.0 20.0)
  end
  begin
     id 11 
     name lowerback
     direction 0.0118782 0.999815 -0.0151555   
     length 2.15772   
     axis 0 0 0   XYZ
    dof rx ry rz
    limits (-20.0 45.0)
           (-30.0 30.0)
           (-30.0 30.0)
  end
  begin
     id 12 
     name upperback
     direction 0.00130825 0.999065 0.0432113   
     length 2.14863   
     axis 0 0 0   XYZ
    dof rx ry rz
    limits (-20.0 45.0)
           (-30.0 30.0)
           (-30.0 30.0)
  end
  begin
     id 13 
     name thorax
     direction -0.00347005 0.998773 0.0494011   
     length 2.14936   
     axis 0 0 0   XYZ
    dof rx ry rz
    limits (-20.0 45.0)
           (-30.0 30.0)
           (-30.0 30.0)
  end
  begin
     id 14 
     name lowerneck
     direction -0.0262159 0.99424 0.103921   
     length 1.69373   
     axis 0 0 0   XYZ
    dof rx ry rz
    limits (-20.0 45.0)
           (-30.0 30.0)
           (-30.0 30.0)
  end
  begin
     id 15 
     name upperneck
     direction 0.0353511 0.977394 -0.20845   
     length 1.70857   
     axis 0 0 0   XYZ
    dof rx ry rz
    limits (-20.0 45.0)
           (-30.0 30.0)
           (-30.0 30.0)
  end
  begin
     id 16
     name head
     direction 0.0139214 0.996594 -0.0812836  
     length 1.72777  
     axis 0 0 0   XYZ
    dof rx ry rz
    limits (-20.0 45.0)
           (-30.0 30.0)
           (-30.0 30.0)
  end
  begin
     id 17 
     name lclavicle
     direction 0.841247 0.537205 -0.0609508  
     length 3.55371  
     axis 0 0 0   XYZ
    dof ry rz
    limits (-20.0 10.0)
           (0.0 20.0)
  end
  begin
     id 18 
     name lhumerus
     direction 1 -4.48964e-011 1.60116e-018   
     length 4.91377   
     axis -180 -30 -90   XYZ
    dof rx ry rz
    limits (-60.0 90.0)
           (-90.0 90.0)
           (-90.0 90.0)
  end
  begin
     id 19
     name lradius
     direction 1 -4.48989e-011 -8.93847e-027   
     length 3.00291   
     axis -180 -30 -90   XYZ
    dof rx
    limits (-10.0 170.0)
  end
  begin
     id 20
     name lwrist
     direction 1 -4.48932e-011 -7.31504e-027   
     length 1.50145   
     axis 5.74121e-015 90 90   XYZ
    dof ry
    limits (-180.0 0.0)
 end
  begin
     id 21 
     name lhand
     direction 1 -4.48971e-011 -1.46301e-026   
     length 0.450922   
     axis 9.33524e-015 90 90   XYZ
    dof rx rz
    limits (-90.0 90.0)
           (-45.0 45.0)
  end
  begin
     id 22 
     name lfingers
     direction 1 -4.49039e-011 -2.92602e-026   
     length 0.363545   
     axis 1.86705e-014 90 90   XYZ
    dof rx
    limits (0.0 90.0)
  end
  begin
     id 23
     name lthumb
     direction 0.707107 -6.34941e-011 0.707107   
     length 0.52198   
     axis -90 45 2.85299e-015   XYZ
    dof rx rz
    limits (-45.0 45.0)
           (-45.0 45.0)
  end
  begin
     id 24 
     name rclavicle
     direction -0.825079 0.56158 -0.0622297   
     length 3.39909  
     axis 0 0 0   XYZ 
    dof ry rz
    limits (-10.0 20.0)
           (-20.0 0.0)
  end
  begin
     id 25 
     name rhumerus
     direction -1 -4.48965e-011 1.61691e-027  
     length 4.86725   
     axis -180 30 90   XYZ
    dof rx ry rz
    limits (-90.0 60.0)
           (-90.0 90.0)
           (-90.0 90.0)
  end
  begin
     id 26 
     name rradius
     direction -1 -4.48964e-011 -2.25776e-027   
     length 3.17144   
     axis -180 30 90   XYZ
    dof rx
    limits (-10.0 170.0)
  end
  begin
     id 27 
     name rwrist
     direction -1 -4.48961e-011 -7.31504e-027   
     length 1.58572   
     axis 5.74121e-015 -90 -90   XYZ
    dof ry
    limits (-180.0 0.0)
  end
  begin
     id 28
     name rhand
     direction -1 -4.49013e-011 -1.46301e-026   
     length 0.419368   
     axis 9.33524e-015 -90 -90   XYZ
    dof rx rz
    limits (-90.0 90.0)
           (-45.0 45.0)
  end
  begin
     id 29
     name rfingers
     direction -1 -4.489e-011 -2.92602e-026   
     length 0.338105   
     axis 1.86705e-014 -90 -90   XYZ
    dof rx
    limits (0.0 90.0)
  end
  begin
     id 30
     name rthumb
     direction -0.707107 -6.35022e-011 0.707107   
     length 0.485453   
     axis -90 -45 -2.85299e-015   XYZ
    dof rx rz
    limits (-45.0 45.0)
           (-45.0 45.0)
  end
:hierarchy
  begin
    root lhipjoint rhipjoint lowerback
    lhipjoint lfemur
    lfemur ltibia
    ltibia lfoot
    lfoot ltoes
    rhipjoint rfemur
    rfemur rtibia
    rtibia rfoot
    rfoot rtoes
    lowerback upperback
    upperback thorax
    thorax lowerneck lclavicle rclavicle
    lowerneck upperneck
    upperneck head
    lclavicle lhumerus
    lhumerus lradius
    lradius lwrist
    lwrist lhand lthumb
    lhand lfingers
    rclavicle rhumerus
    rhumerus rradius
    rradius rwrist
    rwrist rhand rthumb
    rhand rfingers
  end

#!OML:ASF H:\Swim 2\Project 1\Capture day 1\Session 1\male.ASF
:FULLY-SPECIFIED
:DEGREES
865
root 7.81807 9.92976 12.1907 97.5087 -2.58253 3.28652
lowerback -8.07003 4.53661 -7.64205
upperback -9.85372 6.72785 0.263127
thorax -6.85168 4.06685 4.58083
lowerneck -7.55916 -7.58433 3.13478
upperneck 19.2442 -9.50867 -5.97446
head 6.63414 -4.72423 -3.13054
rclavicle -3.18055e-015 7.15625e-015
rhumerus -37.6406 22.8272 -41.1939
rradius 86.6482
rwrist -12.2188
rhand -22.6471 10.1744
rfingers 7.12502
rthumb 3.78392 -19.7718
lclavicle -3.18055e-015 7.15625e-015
lhumerus -19.3088 -53.1552 58.6967
lradius 63.8435
lwrist 36.1827
lhand -42.1351 -15.2957
lfingers 7.12502
lthumb -15.0253 14.1391
rfemur -28.8788 -0.585548 23.5797
rtibia 44.3476
rfoot 19.8439 -4.27678
rtoes 19.2158
lfemur -31.913 -2.25244 -23.5519
ltibia 50.4929
lfoot 14.0731 -4.78925
ltoes 41.5017
866
root 7.80987 9.94334 12.1629 97.3561 -2.58104 3.36596
lowerback -7.81723 4.18478 -7.08175
upperback -9.67017 6.17703 0.12323
thorax -6.61419 3.71739 4.12611
lowerneck -7.83891 -7.13477 2.83757
upperneck 19.4339 -8.9558 -5.45517
head 6.81454 -4.4414 -2.90747
rclavicle 5.725e-014 2.22639e-014
rhumerus -38.9172 22.6682 -42.3587
rradius 85.027
rwrist -12.6432
rhand -24.1993 10.2385
rfingers 7.12502
rthumb 2.28486 -19.729
lclavicle 5.725e-014 2.22639e-014
lhumerus -22.9662 -51.86 60.2212
lradius 61.2675
lwrist 35.7931
lhand -43.3075 -15.4082
lfingers 7.12502
lthumb -16.1544 13.9386
rfemur -28.6746 -0.853102 23.604
rtibia 45.6774
rfoot 20.1401 -3.94499
rtoes 19.0066
lfemur -31.6524 -2.10452 -23.5191
ltibia 51.814
lfoot 14.3792 -5.00991
ltoes 41.8032
867
root 7.80385 9.95799 12.1374 97.0891 -2.60269 3.52399
lowerback -7.45572 3.82363 -6.51727
upperback -9.44162 5.6093 -0.0223017
thorax -6.40239 3.3601 3.65437
lowerneck -8.10302 -6.68692 2.54242
upperneck 19.6179 -8.39582 -4.99194
head 6.9833 -4.15955 -2.69584
rclavicle -1.90833e-014 1.98785e-014
rhumerus -40.1609 22.5345 -43.4645
rradius 83.2894
rwrist -13.4422
rhand -25.6436 10.2495
rfingers 7.12502
rthumb 0.889981 -19.7284
lclavicle -1.90833e-014 1.98785e-014
lhumerus -26.3742 -50.6743 61.5977
lradius 58.5326
lwrist 35.3454
lhand -44.2385 -15.5964
lfingers 7.12502
lthumb -17.0508 13.6753
rfemur -28.3539 -1.20554 23.5992
rtibia 47.0989
rfoot 20.365 -3.55896
rtoes 18.7517
lfemur -31.2694 -2.00827 -23.5266
ltibia 53.1978
lfoot 14.6954 -5.23395
ltoes 42.0596
868
root 7.79904 9.97352 12.1142 96.7463 -2.63879 3.73975
lowerback -7.0261 3.45664 -5.97336
upperback -9.18714 5.03572 -0.166909
thorax -6.22062 3.0042 3.19024
lowerneck -8.31431 -6.25616 2.24883
upperneck 19.7445 -7.85427 -4.55609
head 7.1179 -3.88908 -2.48565
rclavicle -9.54166e-015 -2.3059e-014
rhumerus -41.3932 22.4305 -44.5049
rradius 81.4647
rwrist -14.7383
rhand -26.7936 10.1774
rfingers 7.12502
rthumb -0.220721 -19.8023
lclavicle -9.54166e-015 -2.3059e-014
lhumerus -29.6181 -49.6356 62.9197
lradius 55.68
lwrist 34.8356
lhand -44.8873 -15.8377
lfingers 7.12502
lthumb -17.6752 13.3789
rfemur -27.9612 -1.61463 23.5725
rtibia 48.6109
rfoot 20.5644 -3.12389
rtoes 18.4617
lfemur -30.8104 -1.94206 -23.5631
ltibia 54.6557
lfoot 15.0018 -5.43758
ltoes 42.295
869
root 7.79488 9.98983 12.0931 96.3419 -2.67763 4.00374
lowerback -6.54237 3.08796 -5.46131
upperback -8.91971 4.46449 -0.30411
thorax -6.07728 2.65562 2.74874
lowerneck -8.47255 -5.83524 1.97896
upperneck 19.8557 -7.3163 -4.1866
head 7.22998 -3.62424 -2.29434
rclavicle -8.42847e-014 -1.11319e-014
rhumerus -42.6263 22.3587 -45.4624
rradius 79.5655
rwrist -16.5724
rhand -27.5114 10.0216
rfingers 7.12502
rthumb -0.914048 -19.9562
lclavicle -8.42847e-014 -1.11319e-014
lhumerus -32.7652 -48.757 64.2639
lradius 52.7505
lwrist 34.2608
lhand -45.121 -16.0138
lfingers 7.12502
lthumb -17.9001 13.1824
rfemur -27.5139 -2.06962 23.5351
rtibia 50.2129
rfoot 20.8347 -2.67526
rtoes 18.3057
lfemur -30.2966 -1.89049 -23.6129
ltibia 56.1987
lfoot 15.2866 -5.59397
ltoes 42.5616
870
root 7.79039 10.0065 12.0744 95.927 -2.70651 4.29748
lowerback -6.05048 2.71455 -4.9845
upperback -8.66118 3.89455 -0.430298
thorax -5.9691 2.31453 2.339
lowerneck -8.55946 -5.43396 1.72045
upperneck 19.8965 -6.80411 -3.83033
head 7.30096 -3.37257 -2.1035
rclavicle -4.29375e-014 -5.1684e-015
rhumerus -43.8432 22.3147 -46.3278
rradius 77.5887
rwrist -18.8808
rhand -27.6664 9.75694
rfingers 7.12502
rthumb -1.06368 -20.2202
lclavicle -4.29375e-014 -5.1684e-015
lhumerus -35.8637 -48.0126 65.6633
lradius 49.7779
lwrist 33.5902
lhand -44.8586 -16.0351
lfingers 7.12502
lthumb -17.6476 13.184
rfemur -27.0688 -2.57206 23.5031
rtibia 51.9088
rfoot 21.1762 -2.19248
rtoes 18.2759
lfemur -29.7878 -1.83726 -23.6568
ltibia 57.8383
lfoot 15.5536 -5.68809
ltoes 42.8726
871
root 7.78455 10.0225 12.0578 95.5674 -2.72042 4.5663
lowerback -5.62294 2.34883 -4.55642
upperback -8.42851 3.34681 -0.542653
thorax -5.87406 1.99227 1.97518
lowerneck -8.60313 -5.05204 1.46434
upperneck 19.9214 -6.31803 -3.47475
head 7.35472 -3.13309 -1.91142
rclavicle -1.59028e-014 -1.51076e-014
rhumerus -45.0167 22.2808 -47.0804
rradius 75.5102
rwrist -21.4746
rhand -27.1631 9.24539
rfingers 7.12502
rthumb -0.577621 -20.7336
lclavicle -1.59028e-014 -1.51076e-014
lhumerus -38.8936 -47.3482 67.1137
lradius 46.7601
lwrist 32.7529
lhand -44.0352 -15.8263
lfingers 7.12502
lthumb -16.855 13.4622
rfemur -26.7002 -3.05806 23.4836
rtibia 53.7032
rfoot 21.5789 -1.68871
rtoes 18.3803
lfemur -29.3549 -1.73048 -23.6861
ltibia 59.5838
lfoot 15.7994 -5.72037
ltoes 43.1937
872
root 7.77712 10.0373 12.044 95.2949 -2.72048 4.78526
lowerback -5.29286 1.99749 -4.17594
upperback -8.22755 2.83035 -0.641813
thorax -5.77672 1.69258 1.65651
lowerneck -8.65122 -4.68226 1.20947
upperneck 19.9922 -5.84379 -3.14187
head 7.41983 -2.90062 -1.72748
rclavicle 3.18055e-015 5.1684e-015
rhumerus -46.1129 22.2431 -47.701
rradius 73.2767
rwrist -24.0835
rhand -26.0488 8.52665
rfingers 7.12502
rthumb 0.498578 -21.4525
lclavicle 3.18055e-015 5.1684e-015
lhumerus -41.824 -46.7215 68.568
lradius 43.726
lwrist 31.7021
lhand -42.5778 -15.3793
lfingers 7.12502
lthumb -15.4517 14.0231
rfemur -26.4451 -3.51135 23.4773
rtibia 55.6011
rfoot 22.0004 -1.1842
rtoes 18.5499
lfemur -29.0279 -1.55683 -23.6973
ltibia 61.4363
lfoot 16.0156 -5.70575
ltoes 43.5217
873
root 7.76856 10.0504 12.0331 95.0972 -2.70322 4.95824
lowerback -5.04924 1.66017 -3.82205
upperback -8.05047 2.34186 -0.728862
thorax -5.67019 1.41147 1.36872
lowerneck -8.72578 -4.32633 0.94997
upperneck 20.1037 -5.38523 -2.82122
head 7.49935 -2.67681 -1.54807
rclavicle -1.90833e-014 1.98785e-015
rhumerus -47.0834 22.1789 -48.1727
rradius 70.8317
rwrist -26.4378
rhand -24.4088 7.67235
rfingers 7.12502
rthumb 2.08257 -22.2972
lclavicle -1.90833e-014 1.98785e-015
lhumerus -44.5782 -46.0426 69.93
lradius 40.6861
lwrist 30.3254
lhand -40.4471 -14.6877
lfingers 7.12502
lthumb -13.3987 14.8614
rfemur -26.289 -3.93973 23.4877
rtibia 57.6011
rfoot 22.3597 -0.66422
rtoes 18.6268
lfemur -28.7921 -1.32454 -23.685
ltibia 63.3917
lfoot 16.2088 -5.66628
ltoes 43.8357
874
root 7.759 10.0613 12.0253 94.9849 -2.67356 5.07156
lowerback -4.90665 1.34114 -3.49062
upperback -7.89434 1.88626 -0.807541
thorax -5.5408 1.15046 1.10489
lowerneck -8.84375 -3.98457 0.690062
upperneck 20.247 -4.94446 -2.50855
head 7.59375 -2.46221 -1.3727
rclavicle 3.49861e-014 6.75868e-015
rhumerus -47.8874 22.0673 -48.481
rradius 68.1319
rwrist -28.3627
rhand -22.4204 6.85301
rfingers 7.12502
rthumb 4.00279 -23.0891
lclavicle 3.49861e-014 6.75868e-015
lhumerus -47.0531 -45.2247 71.0493
lradius 37.6704
lwrist 28.5141
lhand -37.6158 -13.8499
lfingers 7.12502
lthumb -10.6686 15.8592
rfemur -26.2465 -4.33059 23.5078
rtibia 59.7036
rfoot 22.6637 -0.157031
rtoes 18.6294
lfemur -28.6531 -1.02642 -23.6529
ltibia 65.4414
lfoot 16.3704 -5.64224
ltoes 44.0761
875
root 7.7507 10.071 12.0203 94.8399 -2.63092 5.20889
lowerback -4.74352 1.02105 -3.14068
upperback -7.7262 1.42999 -0.882688
thorax -5.41737 0.889257 0.833712
lowerneck -8.99384 -3.64542 0.444411
upperneck 20.3782 -4.50395 -2.22637
head 7.68605 -2.24997 -1.20825
rclavicle 9.54166e-015 3.97569e-015
rhumerus -48.4888 21.8849 -48.6034
rradius 65.1621
rwrist -29.7585
rhand -20.3151 6.2361
rfingers 7.12502
rthumb 6.03562 -23.6579
lclavicle 9.54166e-015 3.97569e-015
lhumerus -49.1078 -44.1468 71.7299
lradius 34.6723
lwrist 26.1086
lhand -34.1993 -13.1233
lfingers 7.12502
lthumb -7.37196 16.7283
rfemur -26.1867 -4.78571 23.525
rtibia 61.908
rfoot 22.9216 0.332602
rtoes 18.6036
lfemur -28.4862 -0.743012 -23.6013
ltibia 67.5716
lfoot 16.5182 -5.63632
ltoes 44.2877
876
root 7.74341 10.0796 12.0179 94.6609 -2.57971 5.37015
lowerback -4.55508 0.695457 -2.77678
upperback -7.54888 0.966987 -0.955129
thorax -5.30597 0.625194 0.557171
lowerneck -9.14687 -3.30591 0.202594
upperneck 20.4451 -4.06369 -1.94673
head 7.75502 -2.03861 -1.04243
rclavicle 0 6.55989e-015
rhumerus -48.8566 21.5954 -48.5162
rradius 61.9318
rwrist -30.6336
rhand -18.252 5.90272
rfingers 7.12502
rthumb 8.02716 -23.9248
lclavicle 0 6.55989e-015
lhumerus -50.6803 -42.7594 71.8168
lradius 31.7252
lwrist 23.0408
lhand -30.5173 -12.6998
lfingers 7.12502
lthumb -3.81705 17.2458
rfemur -26.1127 -5.30749 23.5294
rtibia 64.2199
rfoot 23.1712 0.784491
rtoes 18.5838
lfemur -28.2882 -0.479773 -23.5308
ltibia 69.773
lfoot 16.6572 -5.64902
ltoes 44.4811
877
root 7.73519 10.0862 12.0178 94.5763 -2.53671 5.472
lowerback -4.47347 0.385807 -2.4523
upperback -7.40191 0.53189 -1.01981
thorax -5.17611 0.379312 0.311571
lowerneck -9.26961 -2.96755 -0.0488601
upperneck 20.4085 -3.62651 -1.65474
head 7.78216 -1.82896 -0.867669
rclavicle -7.15625e-015 -4.37326e-015
rhumerus -48.9944 21.1749 -48.1806
rradius 58.4848
rwrist -31.0587
rhand -16.3853 5.8169
rfingers 7.12502
rthumb 9.82845 -23.9337
lclavicle -7.15625e-015 -4.37326e-015
lhumerus -51.6514 -40.9539 71.116
lradius 28.7938
lwrist 19.205
lhand -26.9676 -12.6505
lfingers 7.12502
lthumb -0.388763 17.3289
rfemur -26.1772 -5.79389 23.5187
rtibia 66.6562
rfoot 23.517 1.12917
rtoes 18.7008
lfemur -28.1856 -0.160685 -23.4533
ltibia 72.0379
lfoot 16.7685 -5.7051
ltoes 44.5796
